<svg id="Layer_1" data-name="Layer 1" xmlns="http://www.w3.org/2000/svg" xmlns:xlink="http://www.w3.org/1999/xlink" viewBox="0 0 1080 1080"><defs><style>.cls-1{fill:url(#linear-gradient);}.cls-2{fill:url(#linear-gradient-2);}.cls-3{fill:url(#linear-gradient-3);}.cls-4{fill:url(#linear-gradient-4);}.cls-5{fill:url(#linear-gradient-5);}.cls-6{fill:#231f20;}.cls-7{fill:none;}.cls-8{fill:#a91e30;}.cls-9{fill:#bd202e;}.cls-10{fill:#23397e;}.cls-11{fill:#243d97;}</style><linearGradient id="linear-gradient" x1="163.46" y1="636.42" x2="396.28" y2="565.24" gradientUnits="userSpaceOnUse"><stop offset="0" stop-color="#243d96"/><stop offset="0.09" stop-color="#254199"/><stop offset="0.19" stop-color="#284ea1"/><stop offset="0.29" stop-color="#2e62af"/><stop offset="0.38" stop-color="#367fc3"/><stop offset="0.48" stop-color="#40a4dc"/><stop offset="0.5" stop-color="#42ace1"/><stop offset="0.52" stop-color="#40a4dc"/><stop offset="0.62" stop-color="#367fc3"/><stop offset="0.71" stop-color="#2e62af"/><stop offset="0.81" stop-color="#284ea1"/><stop offset="0.91" stop-color="#254199"/><stop offset="1" stop-color="#243d96"/></linearGradient><linearGradient id="linear-gradient-2" x1="130.49" y1="515.49" x2="362.82" y2="444.46" xlink:href="#linear-gradient"/><linearGradient id="linear-gradient-3" x1="83.44" y1="595.38" x2="445.29" y2="484.75" gradientUnits="userSpaceOnUse"><stop offset="0" stop-color="#be1e2d"/><stop offset="0.09" stop-color="#c02231"/><stop offset="0.18" stop-color="#c62f3c"/><stop offset="0.28" stop-color="#cf434e"/><stop offset="0.37" stop-color="#dd6068"/><stop offset="0.47" stop-color="#ee8589"/><stop offset="0.5" stop-color="#f49395"/><stop offset="0.53" stop-color="#ee8589"/><stop offset="0.63" stop-color="#dd6068"/><stop offset="0.72" stop-color="#cf434e"/><stop offset="0.82" stop-color="#c62f3c"/><stop offset="0.91" stop-color="#c02231"/><stop offset="1" stop-color="#be1e2d"/></linearGradient><linearGradient id="linear-gradient-4" x1="181.66" y1="666.2" x2="402.42" y2="598.7" xlink:href="#linear-gradient"/><linearGradient id="linear-gradient-5" x1="125.26" y1="482.26" x2="346.03" y2="414.77" xlink:href="#linear-gradient"/></defs><title>logo</title><path class="cls-1" d="M305.68,525.91a5.2,5.2,0,0,0-7.35,0L186.91,637.33,171.4,652.84h0l-.09.09-27.85,27.85a18.07,18.07,0,1,0,7.08,7.61l28.21-28.21,15.5-15.5h0L302,536.92l14,14,7.34-7.34Z"/><path class="cls-2" d="M394.39,365.73a18,18,0,0,0-16.2,26L350,420l-15.5,15.5h0L226.72,543.21,213.54,530l-7.35,7.34,16.86,16.86a5.2,5.2,0,0,0,7.35,0L341.82,442.8l15.5-15.51h0l.1-.09,27.84-27.85a18.05,18.05,0,1,0,9.13-33.62Z"/><path class="cls-3" d="M456.79,526.76,348,417.93h0l-32.8-32.8.06-.06-37.49-37.49a11,11,0,0,0-15.5,0L71.94,537.87a11,11,0,0,0,0,15.5L180.77,662.2h0l32.8,32.8-.07.06L251,732.55a11,11,0,0,0,15.51,0L456.79,542.26A11,11,0,0,0,456.79,526.76Zm-198,182.54-25.67-25.67.06-.07-38.89-38.88h0L95.19,545.62,270,370.83l26.35,26.35-.07.06,38.22,38.21h0l99.06,99.06Z"/><path class="cls-4" d="M340.59,560.83l-17.27-17.27L316,550.9l13.6,13.6L221.82,672.25l-15.5,15.5-26.73,26.74a18.09,18.09,0,1,0,7.07,7.61l27-27h0l15.51-15.51L340.59,568.17A5.18,5.18,0,0,0,340.59,560.83Z"/><path class="cls-5" d="M199.15,515.63,306.9,407.88l15.51-15.5,26.73-26.74a18.09,18.09,0,1,0-7.07-7.61l-27,27h0l-15.5,15.51L188.13,512a5.2,5.2,0,0,0,0,7.34l18.06,18.06,7.35-7.34Z"/><path class="cls-6" d="M510.56,577.75a5.35,5.35,0,0,1,5.26-5.25h8.06a5.35,5.35,0,0,1,5.26,5.25v.68a1.93,1.93,0,0,1-.48,1.32,1.54,1.54,0,0,1-1.2.54,1.69,1.69,0,0,1-1.29-.57,1.93,1.93,0,0,1-.52-1.38,2.33,2.33,0,0,0-.64-1.67,2.09,2.09,0,0,0-1.63-.68h-7a2.27,2.27,0,0,0-1.65.65,2.25,2.25,0,0,0-.66,1.66V583a2.4,2.4,0,0,0,.66,1.7,2.2,2.2,0,0,0,1.65.7h7.48a5.14,5.14,0,0,1,3.76,1.52,5,5,0,0,1,1.54,3.73v9.06a5.36,5.36,0,0,1-5.26,5.26h-8a5.36,5.36,0,0,1-5.35-5.35V599a1.9,1.9,0,0,1,.5-1.32,1.6,1.6,0,0,1,1.23-.54,1.63,1.63,0,0,1,1.26.54,1.92,1.92,0,0,1,.5,1.36,2.39,2.39,0,0,0,2.45,2.45h6.7a2.43,2.43,0,0,0,1.72-.68,2.18,2.18,0,0,0,.73-1.68V591a2.16,2.16,0,0,0-.68-1.64,2.37,2.37,0,0,0-1.68-.63h-7.47a4.84,4.84,0,0,1-3.74-1.68,5.72,5.72,0,0,1-1.52-4Z"/><path class="cls-6" d="M578.85,605a5.1,5.1,0,0,1-3.69-1.54,5,5,0,0,1-1.56-3.67V577.84a5.37,5.37,0,0,1,1.49-3.8,4.85,4.85,0,0,1,3.67-1.59h8.29a4.91,4.91,0,0,1,3.63,1.54,5.18,5.18,0,0,1,1.49,3.72v22.15a4.81,4.81,0,0,1-1.56,3.62,5.21,5.21,0,0,1-3.74,1.5Zm-1.76-5.85a2.23,2.23,0,0,0,.7,1.68,2.42,2.42,0,0,0,1.74.68h6.8a2.18,2.18,0,0,0,1.67-.73,2.38,2.38,0,0,0,.68-1.72V578.3a2.34,2.34,0,0,0-.65-1.68,2.22,2.22,0,0,0-1.66-.68l-7,.09a2.22,2.22,0,0,0-1.66.68,2.34,2.34,0,0,0-.65,1.68Z"/><path class="cls-6" d="M653.53,605h-11.6a5.19,5.19,0,0,1-3.73-1.5,4.79,4.79,0,0,1-1.57-3.62V574.45a1.9,1.9,0,0,1,.55-1.36,1.73,1.73,0,0,1,1.31-.59,1.43,1.43,0,0,1,1.22.54,2.18,2.18,0,0,1,.41,1.36V599a2.43,2.43,0,0,0,.68,1.72,2.18,2.18,0,0,0,1.68.73h11.09a1.52,1.52,0,0,1,1.11.52,1.61,1.61,0,0,1,.53,1.16,1.76,1.76,0,0,1-.53,1.29A1.61,1.61,0,0,1,653.53,605Z"/><path class="cls-6" d="M718.24,574.31v25.55a4.81,4.81,0,0,1-1.56,3.62,5.23,5.23,0,0,1-3.74,1.5h-8a5.1,5.1,0,0,1-3.69-1.54,5,5,0,0,1-1.56-3.67V574.4a1.86,1.86,0,0,1,1.85-1.86,1.47,1.47,0,0,1,1.18.55,2,2,0,0,1,.46,1.31v24.73a2.23,2.23,0,0,0,.7,1.68,2.42,2.42,0,0,0,1.74.68h6.8a2.18,2.18,0,0,0,1.67-.73,2.38,2.38,0,0,0,.68-1.72V574.36a1.78,1.78,0,0,1,.5-1.29,1.62,1.62,0,0,1,1.22-.53,1.72,1.72,0,0,1,1.27.5A1.75,1.75,0,0,1,718.24,574.31Z"/><path class="cls-6" d="M773.71,603.25a1.84,1.84,0,0,1-.57,1.21,1.52,1.52,0,0,1-2.33-.05,1.73,1.73,0,0,1-.54-1.2l0-27.22h-5.83a1.73,1.73,0,0,1-1.25-.52,1.76,1.76,0,0,1-.53-1.3,1.52,1.52,0,0,1,.55-1.17,1.77,1.77,0,0,1,1.22-.5h7.22a.93.93,0,0,1,.37,0,.91.91,0,0,1,.36,0h7.26a1.45,1.45,0,0,1,1.16.59,2,2,0,0,1,.48,1.27,1.58,1.58,0,0,1-.48,1.13,1.47,1.47,0,0,1-1.07.5h-6.06Z"/><path class="cls-6" d="M829.18,603.25a1.9,1.9,0,0,1-.54,1.21,1.57,1.57,0,0,1-1.14.52,1.69,1.69,0,0,1-1.2-.57,1.72,1.72,0,0,1-.56-1.2V573.9a1.28,1.28,0,0,1,.59-1,1.85,1.85,0,0,1,1.17-.48,1.61,1.61,0,0,1,1.11.43,1.34,1.34,0,0,1,.48,1Z"/><path class="cls-6" d="M878.9,605a5.1,5.1,0,0,1-3.69-1.54,5,5,0,0,1-1.57-3.67V577.84a5.33,5.33,0,0,1,1.5-3.8,4.85,4.85,0,0,1,3.67-1.59h8.29a4.88,4.88,0,0,1,3.62,1.54,5.15,5.15,0,0,1,1.5,3.72v22.15a4.82,4.82,0,0,1-1.57,3.62,5.2,5.2,0,0,1-3.73,1.5Zm-1.77-5.85a2.23,2.23,0,0,0,.7,1.68,2.43,2.43,0,0,0,1.75.68h6.79a2.18,2.18,0,0,0,1.68-.73,2.43,2.43,0,0,0,.68-1.72V578.3a2.31,2.31,0,0,0-.66-1.68,2.22,2.22,0,0,0-1.65-.68l-7,.09a2.22,2.22,0,0,0-1.65.68,2.31,2.31,0,0,0-.66,1.68Z"/><path class="cls-6" d="M940.12,603.25a1.9,1.9,0,0,1-.54,1.21,1.57,1.57,0,0,1-1.14.52,1.69,1.69,0,0,1-1.2-.57,1.72,1.72,0,0,1-.56-1.2V573.9a1.28,1.28,0,0,1,.59-1,1.85,1.85,0,0,1,1.17-.48,1.76,1.76,0,0,1,1,.32,1.45,1.45,0,0,1,.61.77l11.73,22.88V573.9a1.32,1.32,0,0,1,.61-1,2,2,0,0,1,1.2-.48,1.74,1.74,0,0,1,1.14.43,1.32,1.32,0,0,1,.49,1l0,29.35a1.9,1.9,0,0,1-.54,1.21,1.57,1.57,0,0,1-1.14.52,1.76,1.76,0,0,1-1.49-.82l-.05-.09A.24.24,0,0,1,952,604a.75.75,0,0,1-.05-.16.42.42,0,0,1,0-.14L940,580.74Z"/><path class="cls-6" d="M999.71,577.75a5.35,5.35,0,0,1,5.26-5.25H1013a5.33,5.33,0,0,1,5.25,5.25v.68a1.93,1.93,0,0,1-.47,1.32,1.54,1.54,0,0,1-1.2.54,1.66,1.66,0,0,1-1.29-.57,1.93,1.93,0,0,1-.52-1.38,2.33,2.33,0,0,0-.64-1.67,2.09,2.09,0,0,0-1.63-.68h-7a2.27,2.27,0,0,0-1.65.65,2.25,2.25,0,0,0-.66,1.66V583a2.4,2.4,0,0,0,.66,1.7,2.2,2.2,0,0,0,1.65.7H1013a5.11,5.11,0,0,1,3.76,1.52,5,5,0,0,1,1.54,3.73v9.06A5.35,5.35,0,0,1,1013,605h-8a5.36,5.36,0,0,1-5.35-5.35V599a1.9,1.9,0,0,1,.5-1.32,1.59,1.59,0,0,1,1.22-.54,1.64,1.64,0,0,1,1.27.54,2,2,0,0,1,.5,1.36,2.37,2.37,0,0,0,.7,1.75,2.41,2.41,0,0,0,1.75.7h6.7a2.44,2.44,0,0,0,1.72-.68,2.22,2.22,0,0,0,.73-1.68V591a2.16,2.16,0,0,0-.68-1.64,2.4,2.4,0,0,0-1.68-.63H1005a4.84,4.84,0,0,1-3.74-1.68,5.72,5.72,0,0,1-1.52-4Z"/><path class="cls-7" d="M704.11,503.92a16.84,16.84,0,0,0,2.21-8.72,13.73,13.73,0,0,0-2.15-8,7.38,7.38,0,0,0-6.46-3.06H680.39a2.79,2.79,0,0,0-2,.91,2.91,2.91,0,0,0-.91,2.15v14.72A5.69,5.69,0,0,0,679,506a5.37,5.37,0,0,0,4.07,1.64h14.61A7,7,0,0,0,704.11,503.92Z"/><path class="cls-7" d="M693.16,515.92h0Z"/><path class="cls-7" d="M627.4,511.62q0-4.19,4.19-4.19h22V490.1q0-6.35-6-6.34H630.69q-6.24,0-6.23,6.68v25.48H630C628.27,515.41,627.4,514,627.4,511.62Z"/><path class="cls-8" d="M523.7,516h18.68a5.9,5.9,0,0,1,4.19,1.59,5.31,5.31,0,0,1,1.7,4.08V542a5.52,5.52,0,0,1-1.81,4.19,6.09,6.09,0,0,1-4.3,1.7H525.4a6,6,0,0,1-6.12-6.12,4.85,4.85,0,0,0-1.24-3.4,4.14,4.14,0,0,0-3.17-1.36,4,4,0,0,0-3.06,1.36,4.7,4.7,0,0,0-1.25,3.29v1.58a13.33,13.33,0,0,0,13.37,13.36h19.93A13.32,13.32,0,0,0,557,543.44V520.79a13.3,13.3,0,0,0-.88-4.87H522A13.17,13.17,0,0,0,523.7,516Z"/><path class="cls-9" d="M543.74,507.65H525.06a5.4,5.4,0,0,1-4.13-1.75,6,6,0,0,1-1.65-4.25V489.88a5.62,5.62,0,0,1,5.78-5.78h17.55a5.35,5.35,0,0,1,4.08,1.7,5.93,5.93,0,0,1,1.58,4.19,4.9,4.9,0,0,0,1.31,3.45,4.17,4.17,0,0,0,3.22,1.42,3.83,3.83,0,0,0,3-1.36,4.78,4.78,0,0,0,1.19-3.28v-1.7a13.34,13.34,0,0,0-13.13-13.14H523.7a13.36,13.36,0,0,0-13.14,13.14v13.36a14.33,14.33,0,0,0,3.8,10,12.07,12.07,0,0,0,7.66,4.08h34.09a12.63,12.63,0,0,0-3-4.47A12.88,12.88,0,0,0,543.74,507.65Z"/><path class="cls-9" d="M605.88,484.1a3.59,3.59,0,0,0,2.67-1.25,4,4,0,0,0,1.2-2.83,5,5,0,0,0-1.19-3.17,3.62,3.62,0,0,0-2.9-1.47H587.5a3.82,3.82,0,0,0-1.82,0h-18a4.43,4.43,0,0,0-3.06,1.25,3.85,3.85,0,0,0-1.36,2.94,4.34,4.34,0,0,0,1.31,3.23,4.28,4.28,0,0,0,3.13,1.3h14.58l-.05,31.82h8.55V484.1Z"/><path class="cls-8" d="M582.12,552.16a4.27,4.27,0,0,0,1.36,3,3.81,3.81,0,0,0,5.83.11,4.6,4.6,0,0,0,1.42-3V515.92h-8.55Z"/><path class="cls-9" d="M658.49,479a13.71,13.71,0,0,0-9.46-3.62H628.87a12.37,12.37,0,0,0-9.23,3.91,12.93,12.93,0,0,0-3.79,9.34v27.29h8.61V490.44q0-6.68,6.23-6.68h16.87q6,0,6,6.34v17.33h-22q-4.19,0-4.19,4.19c0,2.36.87,3.79,2.59,4.3h32.42q.09-19.92.1-28.2A11.35,11.35,0,0,0,658.49,479Z"/><path class="cls-8" d="M615.85,552c0,3,1.43,4.53,4.3,4.53s4.31-1.5,4.31-4.53V515.92h-8.61Z"/><path class="cls-8" d="M631.59,516.15h22V552c0,3,1.59,4.53,4.76,4.53,2.64,0,4-1.54,4-4.64q0-9.06.11-32.1c0-1.34,0-2.64,0-3.91H630A5.56,5.56,0,0,0,631.59,516.15Z"/><path class="cls-8" d="M706.43,553.29a1.51,1.51,0,0,1,.23.4,1.48,1.48,0,0,1,.11.39,4.61,4.61,0,0,0,4.19,2.49,4.25,4.25,0,0,0,4.19-4.18,7.51,7.51,0,0,0-.45-2.27l-12.18-34.2h-9.23Z"/><path class="cls-9" d="M711.81,507.71a22.44,22.44,0,0,0,3.57-12.51A21.29,21.29,0,0,0,710.62,481a15.87,15.87,0,0,0-12.8-5.66H677.44a8.57,8.57,0,0,0-6.17,2.44,7.89,7.89,0,0,0-2.55,5.94v32.16h33.8l-.28-.79A17.55,17.55,0,0,0,711.81,507.71Zm-28.71-.06A5.37,5.37,0,0,1,679,506a5.69,5.69,0,0,1-1.59-4.13V487.16a2.91,2.91,0,0,1,.91-2.15,2.79,2.79,0,0,1,2-.91h17.32a7.38,7.38,0,0,1,6.46,3.06,13.73,13.73,0,0,1,2.15,8,16.84,16.84,0,0,1-2.21,8.72,7,7,0,0,1-6.4,3.73Z"/><path class="cls-8" d="M668.72,552.16a4.43,4.43,0,0,0,1.25,3.06,3.87,3.87,0,0,0,2.94,1.35,4.39,4.39,0,0,0,3.23-1.3,4.23,4.23,0,0,0,1.3-3.11V521.81a5.81,5.81,0,0,1,1.53-4.13,5.09,5.09,0,0,1,3.91-1.65c1.43,0,3.26,0,5.49,0s3.73-.06,4.79-.06H668.72Z"/><path class="cls-8" d="M740.5,552.16a4.31,4.31,0,0,0,1.36,3,4.06,4.06,0,0,0,2.95,1.41,4,4,0,0,0,2.88-1.3,4.6,4.6,0,0,0,1.42-3V515.92h-8.55Z"/><path class="cls-9" d="M764.26,484.1a3.61,3.61,0,0,0,2.68-1.25,4,4,0,0,0,1.19-2.83,4.91,4.91,0,0,0-1.19-3.17,3.6,3.6,0,0,0-2.89-1.47H745.88a2.46,2.46,0,0,0-.9-.11,2.49,2.49,0,0,0-.91.11H726a4.44,4.44,0,0,0-3.07,1.25,3.85,3.85,0,0,0-1.36,2.94,4.38,4.38,0,0,0,1.31,3.23,4.28,4.28,0,0,0,3.13,1.3h14.59l-.06,31.82h8.55V484.1Z"/><path class="cls-10" d="M832.61,552.16a4.27,4.27,0,0,0,1.36,3,4,4,0,0,0,2.94,1.41,4,4,0,0,0,2.89-1.3,4.6,4.6,0,0,0,1.42-3V515.92h-8.55Z"/><path class="cls-11" d="M856.37,484.1a3.59,3.59,0,0,0,2.67-1.25,4,4,0,0,0,1.2-2.83,5,5,0,0,0-1.19-3.17,3.62,3.62,0,0,0-2.9-1.47H838a2.49,2.49,0,0,0-.91-.11,2.57,2.57,0,0,0-.91.11h-18a4.44,4.44,0,0,0-3.07,1.25,3.85,3.85,0,0,0-1.36,2.94A4.34,4.34,0,0,0,815,482.8a4.28,4.28,0,0,0,3.13,1.3h14.58l-.05,31.82h8.55V484.1Z"/><path class="cls-10" d="M866.34,543.44a12.75,12.75,0,0,0,3.85,9.23,12.46,12.46,0,0,0,9.18,3.9h29.32c2.8,0,4.19-1.47,4.19-4.41a4.7,4.7,0,0,0-1-3.29,4.3,4.3,0,0,0-3.23-1H881.18a6.11,6.11,0,0,1-4.31-1.7,5.55,5.55,0,0,1-1.81-4.19V516h24.8a6.47,6.47,0,0,0,1.21-.11H866.34Z"/><path class="cls-11" d="M904.16,511.73a3.64,3.64,0,0,0-1.35-2.94,4.51,4.51,0,0,0-2.95-1.14h-24.8V490a5.6,5.6,0,0,1,1.76-4.19,6,6,0,0,1,4.36-1.7h27.4q4.42,0,4.42-4.42c0-2.86-1.47-4.3-4.42-4.3h-29a12.92,12.92,0,0,0-9.4,3.79,12.64,12.64,0,0,0-3.85,9.35v27.4h34.73C903.13,515.55,904.16,514.16,904.16,511.73Z"/><path class="cls-10" d="M919.21,543.55a12.4,12.4,0,0,0,3.91,9.17,12.69,12.69,0,0,0,9.23,3.85h20a13.06,13.06,0,0,0,9.35-3.73,12.08,12.08,0,0,0,3.9-9.06v-2a3.77,3.77,0,0,0-1.24-2.94,4.38,4.38,0,0,0-3.06-1.14,4.55,4.55,0,0,0-3.06,1.19,3.74,3.74,0,0,0-1.36,2.89,6,6,0,0,1-1.7,4.36,5.6,5.6,0,0,1-4.19,1.76h-17a6,6,0,0,1-4.36-1.7,5.62,5.62,0,0,1-1.76-4.19V515.92h-8.72Z"/><path class="cls-11" d="M929.57,485.8a5.54,5.54,0,0,1,4.14-1.7l17.44-.23a5.52,5.52,0,0,1,4.13,1.7,5.81,5.81,0,0,1,1.64,4.19,3.28,3.28,0,0,0,1.47,2.61,5.13,5.13,0,0,0,3.17,1.13,4.15,4.15,0,0,0,2.84-1.13,3.55,3.55,0,0,0,1.24-2.72v-1.36A12.84,12.84,0,0,0,961.9,479a12.17,12.17,0,0,0-9-3.85H932.12a12.13,12.13,0,0,0-9.17,4,13.37,13.37,0,0,0-3.74,9.51v27.29h8.72V490A5.81,5.81,0,0,1,929.57,485.8Z"/><path class="cls-10" d="M971.86,515.92v36.92a3.31,3.31,0,0,0,1.3,2.66,4.68,4.68,0,0,0,3.11,1.07,4.27,4.27,0,0,0,2.89-1.13,3.36,3.36,0,0,0,1.3-2.6q0-6,.06-15.46t.06-15.46a3,3,0,0,1,.9-2.15,2.83,2.83,0,0,1,2-.9h23.1a2.83,2.83,0,0,1,2,.9,3,3,0,0,1,.91,2.15V552.5a3.73,3.73,0,0,0,1.35,2.89,4.54,4.54,0,0,0,3.06,1.18,4.33,4.33,0,0,0,3-1.18,3.66,3.66,0,0,0,1.3-2.78V515.92Z"/><path class="cls-11" d="M1018.28,479.12a3.27,3.27,0,0,0-1.35-2.66,4.81,4.81,0,0,0-3.06-1.08,4.72,4.72,0,0,0-3,1,3.16,3.16,0,0,0-1.3,2.6v28.43a2.54,2.54,0,0,1-.85,1.92,3,3,0,0,1-2.1.8H983.41a2.59,2.59,0,0,1-2-.91,3.3,3.3,0,0,1-.79-2.26V478.89a3.11,3.11,0,0,0-1.25-2.49,4.36,4.36,0,0,0-2.83-1,5.61,5.61,0,0,0-3.23,1,3,3,0,0,0-1.41,2.55v37h46.42Z"/></svg>